<svg style="width:100%;height:100%;" viewBox="0 0 153 40" preserveAspectRatio="none" width="100%" height="100%" xmlns="http://www.w3.org/2000/svg"><defs><svg width="153" height="40" viewBox="0 0 153 40" fill="none" id="svg-1004412117_12628">
<path d="M126.255 15.8646C126.794 15.8646 127.296 15.931 127.75 16.054C128.204 16.177 128.601 16.3754 128.933 16.6214C129.377 16.9432 129.728 17.3412 129.974 17.805C130.22 18.2687 130.381 18.7796 130.438 19.3284H128.204C128.138 18.8647 127.929 18.477 127.579 18.1741C127.229 17.8713 126.784 17.7191 126.235 17.7191C125.819 17.7191 125.45 17.8043 125.138 17.9651C124.825 18.126 124.57 18.3534 124.361 18.6468C124.153 18.9402 124.002 19.2812 123.897 19.6693C123.793 20.0667 123.737 20.4927 123.737 20.9564C123.737 21.42 123.794 21.846 123.917 22.2435C124.04 22.6406 124.201 22.9812 124.418 23.265C124.636 23.5489 124.892 23.7769 125.204 23.9378C125.516 24.0986 125.867 24.1839 126.245 24.1839C126.851 24.1839 127.324 24.0128 127.674 23.6722C128.024 23.3315 128.222 22.9058 128.279 22.3948H130.532C130.494 22.8868 130.371 23.3503 130.163 23.7855C129.955 24.2208 129.681 24.6001 129.35 24.9407C128.981 25.3098 128.544 25.5845 128.033 25.7737C127.522 25.9534 126.926 26.0481 126.245 26.0482C125.545 26.0387 124.891 25.9056 124.305 25.6595C123.709 25.404 123.206 25.0541 122.79 24.5999C122.374 24.1457 122.043 23.6151 121.807 22.9905C121.57 22.366 121.456 21.6938 121.456 20.9651C121.456 20.2367 121.57 19.5651 121.797 18.9407C122.024 18.3161 122.345 17.7759 122.762 17.3216C123.178 16.8673 123.68 16.5078 124.276 16.2523C124.873 15.9967 125.526 15.8646 126.255 15.8646ZM136.144 15.8548C136.882 15.8548 137.544 15.987 138.141 16.2425C138.737 16.4979 139.248 16.8578 139.664 17.3118C140.08 17.7661 140.412 18.2966 140.63 18.9212C140.857 19.5458 140.961 20.2276 140.961 20.9564C140.961 21.685 140.848 22.3572 140.63 22.9818C140.403 23.6062 140.08 24.1457 139.664 24.5999C139.248 25.054 138.737 25.4138 138.141 25.6693C137.544 25.9247 136.882 26.0482 136.144 26.0482C135.396 26.0481 134.724 25.9248 134.128 25.6693C133.532 25.4138 133.021 25.0635 132.604 24.5999C132.188 24.1457 131.856 23.6063 131.639 22.9818C131.412 22.3572 131.308 21.685 131.308 20.9564C131.308 20.2182 131.421 19.5364 131.639 18.9212C131.866 18.2966 132.188 17.7566 132.604 17.3118C133.021 16.8577 133.532 16.5074 134.128 16.2425C134.724 15.987 135.396 15.8548 136.144 15.8548ZM42.0225 16.0257C42.7038 16.0257 43.3284 16.1486 43.8867 16.3851C44.4451 16.6217 44.9189 16.9526 45.3164 17.388C45.7138 17.8138 46.0164 18.3439 46.2246 18.9495C46.4328 19.5647 46.5371 20.2465 46.5371 20.9847C46.5371 21.7132 46.433 22.3756 46.2344 22.9622C46.0356 23.5585 45.7328 24.0604 45.3447 24.4769C44.9472 24.8933 44.464 25.2246 43.8867 25.4612C43.3095 25.6977 42.6469 25.8109 41.8994 25.8109H37.9531V16.0257H42.0225ZM55.1016 17.8987H49.9912V19.8392H54.4111V21.6185H49.9912V23.89H55.1875V25.8109H47.7578V16.0257H55.1016V17.8987ZM61.4346 20.2747C61.586 20.5302 61.7373 20.8047 61.8887 21.098C62.0401 21.3913 62.182 21.666 62.3145 21.931L62.7783 22.8489H62.8066C62.7782 22.5177 62.7592 22.177 62.7402 21.8362C62.7213 21.543 62.7116 21.2403 62.7021 20.8997C62.6927 20.5687 62.6934 20.2561 62.6934 19.9818V16.0257H64.832V25.8109H62.5322L59.9766 21.6185C59.8252 21.3724 59.6736 21.0977 59.5127 20.7855C59.3519 20.4827 59.2096 20.1893 59.0771 19.9339C58.9164 19.6313 58.7656 19.3189 58.6143 18.9974H58.585L58.6426 20.0189C58.6615 20.3123 58.6705 20.6156 58.6895 20.9564C58.6989 21.2875 58.708 21.5999 58.708 21.8743V25.8021H56.5693V16.0257H58.8604L61.4346 20.2747ZM74.0781 17.9368H71.1533V25.8109H68.9102V17.9368H65.9951V16.0257H74.0781V17.9368ZM82.7656 25.8109H80.3994L79.7842 23.9466H76.2354L75.6299 25.8109H73.377L76.8975 16.0257H79.2256L82.7656 25.8109ZM85.9834 23.89H90.498V25.8109H83.75V16.0257H85.9834V23.89ZM93.9336 23.89H98.4385V25.8109H91.6904V16.0257H93.9336V23.89ZM108.462 25.8109H106.096L105.48 23.9466H101.932L101.326 25.8109H99.0732L102.594 16.0257H104.922L108.462 25.8109ZM114.073 16.0257C115.086 16.0257 115.844 16.2528 116.364 16.6976C116.913 17.1802 117.197 17.8049 117.197 18.5618C117.197 19.546 116.667 20.1991 115.616 20.5208V20.5775C116.25 20.7289 116.734 21.0126 117.074 21.429C117.415 21.8454 117.585 22.3567 117.585 22.9622C117.585 23.4354 117.5 23.8523 117.339 24.2025C117.169 24.5526 116.932 24.8555 116.629 25.0921C116.042 25.5747 115.238 25.8109 114.206 25.8109H109.455V16.0257H114.073ZM120.851 25.8109H118.664V23.6536H120.851V25.8109ZM146.451 20.1038C146.536 20.4066 146.631 20.7572 146.716 21.1546C146.801 21.5521 146.887 21.931 146.953 22.3001C147.038 22.7165 147.123 23.1519 147.189 23.5872H147.228C147.294 23.1519 147.369 22.7165 147.454 22.3001C147.52 21.931 147.606 21.5521 147.682 21.1546C147.767 20.7572 147.852 20.4066 147.946 20.1038L149.139 16.0257H152.187V25.8109H150.123V21.429C150.123 21.1262 150.132 20.7665 150.151 20.3597C150.17 19.9528 150.189 19.5744 150.208 19.2054C150.236 18.789 150.265 18.353 150.284 17.8987H150.256C150.18 18.3057 150.095 18.7041 150.01 19.0921C149.944 19.4232 149.858 19.7733 149.764 20.1517C149.669 20.5208 149.584 20.8524 149.499 21.1458L148.107 25.8021H146.262L144.852 21.1458C144.766 20.8524 144.672 20.5207 144.587 20.1517C144.492 19.7828 144.416 19.4232 144.341 19.0921C144.256 18.6946 144.17 18.2962 144.095 17.8987H144.066C144.095 18.3436 144.123 18.7795 144.142 19.2054C144.161 19.5744 144.179 19.9623 144.198 20.3597C144.217 20.7665 144.227 21.1168 144.227 21.429V25.8109H142.211V16.0257H145.23L146.451 20.1038ZM136.153 17.681C135.737 17.681 135.358 17.7662 135.046 17.9271C134.724 18.0974 134.459 18.3254 134.241 18.6282C134.024 18.9215 133.863 19.2719 133.759 19.6693C133.645 20.0666 133.598 20.5017 133.598 20.9651C133.598 21.4288 133.655 21.8549 133.759 22.2523C133.872 22.6497 134.033 22.9908 134.241 23.2747C134.459 23.5681 134.724 23.7955 135.046 23.9564C135.368 24.1267 135.737 24.2025 136.153 24.2025C136.579 24.2119 136.948 24.1267 137.261 23.9564C137.573 23.786 137.838 23.5586 138.046 23.2747C138.254 22.9813 138.415 22.6403 138.52 22.2523C138.624 21.8549 138.681 21.4287 138.681 20.9651C138.681 20.5017 138.624 20.0665 138.52 19.6693C138.415 19.2718 138.254 18.9216 138.046 18.6282C137.838 18.3348 137.573 18.0974 137.261 17.9271C136.948 17.7567 136.579 17.681 136.153 17.681ZM111.679 24.0599H113.97C114.395 24.0504 114.746 23.9281 115.001 23.6917C115.237 23.4741 115.36 23.171 115.36 22.8021C115.36 22.3764 115.228 22.0542 114.954 21.846C114.68 21.6378 114.339 21.5335 113.932 21.5335H111.679V24.0599ZM40.1963 23.928H41.7197C42.5714 23.9186 43.2056 23.6629 43.6221 23.1614C44.0385 22.6504 44.2471 21.9304 44.2471 20.9935C44.247 20.0662 44.0384 19.3184 43.6221 18.7601C43.2057 18.2019 42.581 17.9271 41.7578 17.9271H40.1963V23.928ZM77.7969 18.8548C77.7307 19.1197 77.6548 19.4037 77.5791 19.7064C77.5034 20.0092 77.4273 20.2745 77.3516 20.511L76.7559 22.3382H79.2637L78.667 20.511C78.5629 20.18 78.4683 19.8584 78.3926 19.5462C78.3169 19.234 78.2511 18.9592 78.1943 18.7132C78.1376 18.4198 78.0805 18.1546 78.0332 17.9085H78.0049C77.9386 18.2302 77.8631 18.552 77.7969 18.8548ZM103.493 18.8548C103.427 19.1197 103.351 19.4037 103.275 19.7064C103.2 20.0092 103.124 20.2745 103.048 20.511L102.442 22.3382H104.96L104.363 20.511C104.259 20.18 104.165 19.8584 104.089 19.5462C104.013 19.234 103.947 18.9592 103.891 18.7132C103.834 18.4198 103.777 18.1546 103.729 17.9085H103.701C103.635 18.2302 103.559 18.552 103.493 18.8548ZM111.67 19.9525H113.762C114.149 19.9618 114.452 19.8675 114.688 19.6878C114.925 19.508 115.039 19.2336 115.039 18.8646C115.039 18.5051 114.926 18.2306 114.708 18.0413C114.481 17.8521 114.178 17.7572 113.79 17.7571H111.67V19.9525Z" fill="url(#svg-1004412117_12628_paint0_linear_133_245)"></path>
<rect x="12.5879" y="10.8839" width="13.5338" height="19.2124" fill="#9B9B9B"></rect>
<path d="M19.4695 7.61133C12.6079 7.61133 7.04297 13.1763 7.04297 20.0379C7.04297 26.8994 12.5985 32.4644 19.4695 32.4644C26.3405 32.4644 31.896 26.8994 31.896 20.0379C31.896 13.1763 26.3311 7.61133 19.4695 7.61133ZM24.7411 23.833C24.4855 25.9341 23.9177 27.666 23.293 28.2623C22.9807 28.5557 22.7347 28.4989 22.4791 28.2812C22.3088 27.7039 22.1952 26.9657 22.0816 26.1896C21.8166 24.3914 21.5138 22.3566 20.255 21.4859C19.9143 21.2493 19.479 21.1925 19.0909 21.3345C17.5199 21.8928 17.1981 24.1643 16.9047 26.1612C16.7817 27.013 16.6681 27.8174 16.4693 28.3758V28.3853C16.4599 28.4042 16.4504 28.4137 16.4504 28.4137L16.4315 28.4232L16.4125 28.4326C16.2895 28.5178 15.9867 28.7071 15.504 28.0067C14.8888 27.1171 14.3588 25.2905 14.1601 23.3503C13.9329 21.2114 14.2074 19.9527 14.5576 19.6877C14.5954 19.6593 14.6333 19.6498 14.6806 19.6498C15.7027 19.7066 16.3747 19.5552 16.8006 19.1766C17.3022 18.7223 17.3306 18.0693 17.3495 17.492C17.3684 16.962 17.3874 16.5077 17.7091 16.2332C18.1634 15.8547 19.2329 15.7884 20.8797 16.0345C21.0122 16.0534 21.1257 16.0913 21.2204 16.1575C21.5611 16.3752 21.5989 16.7916 21.6368 17.4352C21.6652 18.0409 21.7031 18.7318 22.233 19.205C22.6779 19.6025 23.3782 19.735 24.4098 19.6498C24.4571 19.6498 24.495 19.6687 24.5234 19.6971L24.5329 19.7161C24.8262 20.0946 25.0061 21.6657 24.7411 23.833ZM25.1575 18.2397C24.9493 19.2239 23.047 18.9779 22.7157 18.6466C22.0154 17.8516 22.7725 16.2238 21.6273 15.5329C21.4381 15.4098 21.2298 15.3341 20.9838 15.2963C18.2202 14.8988 16.564 15.1259 16.5734 17.4825C16.5734 17.9841 16.5356 18.5614 16.0151 18.7886C15.7879 18.8832 15.5324 18.9021 15.2863 18.9211C15.0213 18.94 14.7468 18.94 14.4724 18.9021C14.2736 18.8738 14.1033 18.7791 14.0181 18.5898C13.2799 16.697 12.201 14.6716 13.7815 12.6084C15.6459 10.5452 17.2265 12.1258 19.46 12.1258C21.6936 12.1258 23.2741 10.5358 25.1386 12.6084C25.7348 13.2615 25.943 14.047 25.943 14.8325C25.962 16.1102 25.4225 17.1134 25.1575 18.2397Z" fill="white"></path>
<path d="M15.5708 39.4869C14.7285 39.2976 13.8862 39.0421 13.0628 38.7392C10.5358 37.8023 8.26442 36.4016 6.31479 34.5655C4.43141 32.7957 2.9266 30.7041 1.83822 28.3475C0.749833 25.9909 0.144123 23.4829 0.0210877 20.9086C-0.101947 18.2303 0.314479 15.5992 1.24197 13.0628C2.17893 10.5358 3.57964 8.26443 5.41569 6.3148C7.19497 4.42195 9.28656 2.91714 11.6432 1.83822C13.9997 0.749833 16.5078 0.144123 19.0915 0.0210877C21.7699 -0.101947 24.4009 0.314479 26.9373 1.24197C29.4643 2.17893 31.7262 3.57964 33.6759 5.40623L31.4234 7.80068C29.7955 6.27694 27.9027 5.10338 25.7922 4.32731C23.6722 3.54178 21.467 3.20107 19.2335 3.30517C17.0756 3.39982 14.984 3.91088 13.006 4.81945C11.0374 5.72801 9.28656 6.98676 7.80068 8.55782C6.26747 10.1857 5.09391 12.088 4.31784 14.208C3.53231 16.3279 3.1916 18.5331 3.29571 20.7667C3.39035 22.9245 3.90142 25.0161 4.80998 26.9941C5.71855 28.9627 6.97729 30.7136 8.54835 32.1994C10.1762 33.7327 12.0785 34.9062 14.189 35.6823C16.309 36.4678 18.5142 36.8085 20.7477 36.7044C22.9056 36.6098 24.9972 36.0987 26.9752 35.1901C28.9438 34.2816 30.6946 33.0228 32.1805 31.4518L34.5655 33.6948C32.7957 35.5782 30.7041 37.083 28.3475 38.1714C25.9909 39.2598 23.4829 39.8655 20.8992 39.9885C19.101 40.0453 17.3217 39.8939 15.5708 39.4869Z" fill="url(#svg-1004412117_12628_paint1_linear_133_245)"></path>
<path d="M27.6182 8.57696L36.666 12.3248L35.3883 2.6145L27.6182 8.57696Z" fill="#A7181B"></path>
<path d="M38.0859 2.33973V0.797058H38.6065C38.7295 0.797058 38.8241 0.815987 38.8999 0.853843C38.9756 0.8917 39.0324 0.948486 39.0702 1.0242C39.1081 1.09991 39.127 1.17563 39.127 1.27027C39.127 1.36491 39.1081 1.44063 39.0702 1.50687C39.0324 1.57312 38.9756 1.62991 38.8999 1.66777C38.8241 1.70562 38.7295 1.72455 38.6065 1.72455H38.19V1.5542H38.6065C38.6916 1.5542 38.7579 1.54473 38.8052 1.51634C38.8525 1.48795 38.8904 1.45955 38.9188 1.41223C38.9377 1.36491 38.9566 1.31759 38.9566 1.25134C38.9566 1.18509 38.9472 1.13777 38.9188 1.09045C38.8999 1.04313 38.862 1.00527 38.8052 0.986343C38.7579 0.95795 38.6916 0.948486 38.6065 0.948486H38.2752V2.3208H38.0859V2.33973ZM38.8052 1.63937L39.1838 2.33026H38.9661L38.597 1.63937H38.8052Z" fill="#A7181B"></path>
<path d="M38.5408 2.88881C37.8121 2.88881 37.2158 2.29257 37.2158 1.56382C37.2158 0.835077 37.8121 0.238831 38.5408 0.238831C39.2696 0.238831 39.8658 0.835077 39.8658 1.56382C39.8563 2.29257 39.2696 2.88881 38.5408 2.88881ZM38.5408 0.409187C37.9067 0.409187 37.3862 0.929719 37.3862 1.56382C37.3862 2.19792 37.9067 2.71846 38.5408 2.71846C39.1749 2.71846 39.6954 2.19792 39.6954 1.56382C39.6954 0.929719 39.1749 0.409187 38.5408 0.409187Z" fill="#A7181B"></path>
<defs>
<linearGradient id="svg-1004412117_12628_paint0_linear_133_245" x1="37.9531" y1="20.9514" x2="152.186" y2="20.9514" gradientUnits="userSpaceOnUse">
<stop stop-color="#FC2C22"></stop>
<stop offset="1" stop-color="#A2171B"></stop>
</linearGradient>
<linearGradient id="svg-1004412117_12628_paint1_linear_133_245" x1="33.0775" y1="19.9695" x2="-2.41297" y2="19.7649" gradientUnits="userSpaceOnUse">
<stop stop-color="#A2171B"></stop>
<stop offset="1" stop-color="#FC2C22"></stop>
</linearGradient>
</defs>
</svg></defs><use href="#svg-1004412117_12628"></use></svg>